<svg xmlns="http://www.w3.org/2000/svg" width="21" height="21" viewBox="0 0 21 21" fill="none">
  <path d="M9.42439 1C9.16439 1 8.90439 1.06 8.65439 1.15L1.29439 4.2C0.805151 4.40035 0.4155 4.78678 0.211101 5.27433C0.00670195 5.76189 0.00428748 6.31066 0.204388 6.8L5.16439 18.75C5.3109 19.1125 5.56042 19.424 5.88211 19.6462C6.20379 19.8683 6.58354 19.9914 6.97439 20C7.23439 20 7.50439 19.97 7.76439 19.85L15.1344 16.8C15.4901 16.649 15.7951 16.3992 16.0131 16.0802C16.2311 15.7611 16.353 15.3863 16.3644 15C16.3744 14.75 16.3244 14.46 16.2344 14.2L11.2344 2.25C11.093 1.88402 10.8448 1.56906 10.522 1.34612C10.1992 1.12317 9.8167 1.00257 9.42439 1ZM12.9044 1L16.3544 9.35V3C16.3544 2.46957 16.1437 1.96086 15.7686 1.58579C15.3935 1.21071 14.8848 1 14.3544 1M18.3644 2.54V11.57L20.7944 5.71C20.894 5.46777 20.9448 5.20825 20.9439 4.94633C20.9431 4.68441 20.8905 4.42524 20.7892 4.18369C20.6879 3.94214 20.54 3.72295 20.3538 3.53871C20.1677 3.35446 19.947 3.20877 19.7044 3.11M9.42439 2.97L14.4044 14.99L7.01439 18.05L2.03439 6.04" fill="#EEEEEE"/>
</svg>