<svg width="21" height="21" viewBox="0 0 21 21" fill="none" xmlns="http://www.w3.org/2000/svg">
<path d="M10.5 1C11.7598 1 12.968 1.50044 13.8588 2.39124C14.7496 3.28204 15.25 4.49022 15.25 5.75C15.25 7.00978 14.7496 8.21796 13.8588 9.10876C12.968 9.99956 11.7598 10.5 10.5 10.5C9.24022 10.5 8.03204 9.99956 7.14124 9.10876C6.25044 8.21796 5.75 7.00978 5.75 5.75C5.75 4.49022 6.25044 3.28204 7.14124 2.39124C8.03204 1.50044 9.24022 1 10.5 1ZM10.5 12.875C15.7487 12.875 20 15.0006 20 17.625V20H1V17.625C1 15.0006 5.25125 12.875 10.5 12.875Z" fill="white"/>
</svg>