<svg width="21" height="21" viewBox="0 0 21 21" fill="none" xmlns="http://www.w3.org/2000/svg">
<path d="M10.5 1C12.3789 1 14.2156 1.55717 15.7779 2.60104C17.3402 3.64491 18.5578 5.12861 19.2769 6.86451C19.9959 8.6004 20.184 10.5105 19.8175 12.3534C19.4509 14.1962 18.5461 15.8889 17.2175 17.2175C15.8889 18.5461 14.1962 19.4509 12.3534 19.8175C10.5105 20.184 8.6004 19.9959 6.86451 19.2769C5.12861 18.5578 3.64491 17.3402 2.60104 15.7779C1.55717 14.2156 1 12.3789 1 10.5C1 7.98044 2.00089 5.56408 3.78248 3.78248C5.56408 2.00089 7.98044 1 10.5 1Z" fill="white"/>
</svg>