<svg width="25" height="24" viewBox="0 0 25 24" fill="none" xmlns="http://www.w3.org/2000/svg">
<path d="M18.6912 4.09L16.1612 6.03L17.0712 9.09L14.4412 7.28L11.8112 9.09L12.7212 6.03L10.1912 4.09L13.3812 4L14.4412 1L15.5012 4L18.6912 4.09ZM22.1912 11L20.5512 12.25L21.1412 14.23L19.4412 13.06L17.7412 14.23L18.3312 12.25L16.6912 11L18.7512 10.95L19.4412 9L20.1312 10.95L22.1912 11ZM19.9112 15.95C20.7412 15.87 21.6312 17.05 21.1012 17.8C20.7812 18.25 20.4412 18.67 20.0212 19.07C16.1112 23 9.78117 23 5.88117 19.07C1.97117 15.17 1.97117 8.83 5.88117 4.93C6.28117 4.53 6.70117 4.17 7.15117 3.85C7.90117 3.32 9.08117 4.21 9.00117 5.04C8.73117 7.9 9.69117 10.87 11.8912 13.06C12.9308 14.1052 14.1894 14.9066 15.5764 15.4064C16.9633 15.9062 18.4438 16.0918 19.9112 15.95ZM18.2712 17.97C15.3355 17.8012 12.5622 16.5675 10.4712 14.5C8.30117 12.31 7.14117 9.5 6.98117 6.68C4.17117 9.82 4.28117 14.64 7.29117 17.66C10.3112 20.67 15.1312 20.78 18.2712 17.97Z" fill="#EEEEEE"/>
</svg>