<svg width="35" height="40" viewBox="0 0 35 40" fill="none" xmlns="http://www.w3.org/2000/svg">
<path d="M34.0194 22.6053L26.4051 5.93037C26.0625 5.1706 25.5295 4.49081 24.8442 4.01096L24.6158 3.851L20.4279 0.851917C18.7528 -0.347718 16.5827 -0.267742 14.9837 1.01187L7.67403 7.01004C7.59789 7.09002 7.52174 7.13001 7.4456 7.20998L7.40753 7.24997C6.9126 7.68984 6.53189 8.24966 6.26539 8.88947L0.859266 21.8055C0.135912 23.525 0.440482 25.5644 1.62069 26.964C1.73491 27.1239 1.88719 27.2839 2.03948 27.4038L14.4507 38.8004C15.3264 39.6001 16.3924 40 17.4964 40C18.5243 40 19.5523 39.6401 20.3898 38.9203L28.4229 32.1224L32.7249 28.4835C34.4381 27.0439 34.9331 24.6447 34.0194 22.6053ZM16.5446 3.17121C17.268 2.57139 18.2578 2.53141 18.9812 3.09124L21.5701 4.93068L17.5345 7.60986L13.0421 10.6089L10.3009 8.20968L16.5446 3.17121ZM3.18162 22.8852L8.5116 10.1691L11.405 12.6883C11.5573 12.8083 11.7096 12.9682 11.8238 13.1682C11.938 13.3281 12.0522 13.5281 12.1664 13.728L16.8873 24.2048L3.18162 24.7246C2.95319 24.1648 2.95319 23.485 3.18162 22.8852ZM18.8289 36.841C18.0294 37.5208 16.9254 37.4808 16.1639 36.801L5.80853 27.2839L17.7249 26.844C17.9914 26.844 18.2578 26.884 18.4863 26.924C18.5624 26.924 18.6005 26.964 18.6766 26.964C18.9051 27.0439 19.1335 27.1639 19.3238 27.2839L25.4533 31.2427L18.8289 36.841ZM31.164 26.4041L27.5472 29.4432L20.6563 25.0046C20.5421 24.9246 20.4279 24.8846 20.3518 24.8046C20.3137 24.8046 20.2756 24.7646 20.2376 24.7646C20.1614 24.7246 20.0853 24.6847 20.0091 24.6447C20.0091 24.6447 19.9711 24.6447 19.9711 24.6047L19.8188 24.2848L14.603 12.7683L23.8163 6.61016C23.9305 6.77011 24.0447 6.93007 24.1208 7.09002L31.7351 23.7649C32.1539 24.6847 31.9254 25.7643 31.164 26.4041Z" fill="#1400FF"/>
</svg>