<svg width="215" height="76" viewBox="0 0 215 76" fill="none" xmlns="http://www.w3.org/2000/svg">
<path d="M124.019 22.6053L116.405 5.93037C116.062 5.1706 115.529 4.49081 114.844 4.01096L114.616 3.851L110.428 0.851917C108.753 -0.347718 106.583 -0.267742 104.984 1.01187L97.674 7.01004C97.5979 7.09002 97.5217 7.13001 97.4456 7.20998L97.4075 7.24997C96.9126 7.68984 96.5319 8.24966 96.2654 8.88947L90.8593 21.8055C90.1359 23.525 90.4405 25.5644 91.6207 26.964C91.7349 27.1239 91.8872 27.2839 92.0395 27.4038L104.451 38.8004C105.326 39.6001 106.392 40 107.496 40C108.524 40 109.552 39.6401 110.39 38.9203L118.423 32.1224L122.725 28.4835C124.438 27.0439 124.933 24.6447 124.019 22.6053ZM106.545 3.17121C107.268 2.57139 108.258 2.53141 108.981 3.09124L111.57 4.93068L107.534 7.60986L103.042 10.6089L100.301 8.20968L106.545 3.17121ZM93.1816 22.8852L98.5116 10.1691L101.405 12.6883C101.557 12.8083 101.71 12.9682 101.824 13.1682C101.938 13.3281 102.052 13.5281 102.166 13.728L106.887 24.2048L93.1816 24.7246C92.9532 24.1648 92.9532 23.485 93.1816 22.8852ZM108.829 36.841C108.029 37.5208 106.925 37.4808 106.164 36.801L95.8085 27.2839L107.725 26.844C107.991 26.844 108.258 26.884 108.486 26.924C108.562 26.924 108.6 26.964 108.677 26.964C108.905 27.0439 109.133 27.1639 109.324 27.2839L115.453 31.2427L108.829 36.841ZM121.164 26.4041L117.547 29.4432L110.656 25.0046C110.542 24.9246 110.428 24.8846 110.352 24.8046C110.314 24.8046 110.276 24.7646 110.238 24.7646C110.161 24.7246 110.085 24.6847 110.009 24.6447C110.009 24.6447 109.971 24.6447 109.971 24.6047L109.819 24.2848L104.603 12.7683L113.816 6.61016C113.93 6.77011 114.045 6.93007 114.121 7.09002L121.735 23.7649C122.154 24.6847 121.925 25.7643 121.164 26.4041Z" fill="#1400FF"/>
<path d="M16 75.8333L20.2998 56.1111H28.9847C29.782 56.1111 30.4844 56.2685 31.0918 56.5833C31.7183 56.8981 32.2403 57.3148 32.658 57.8333C33.0946 58.3519 33.4268 58.9444 33.6546 59.6111C33.8824 60.2778 33.9963 60.963 33.9963 61.6667C33.9963 62.3519 33.8824 63.0278 33.6546 63.6944C33.4458 64.3611 33.1421 65 32.7434 65.6111C32.3637 66.2037 31.8986 66.75 31.3481 67.25C30.8166 67.75 30.2281 68.1667 29.5827 68.5L32.1739 75.8333H26.906L24.6849 69.4722H22.0367L20.6699 75.8333H16ZM26.7921 65.5C27.0768 65.5 27.3616 65.4167 27.6463 65.25C27.9311 65.0648 28.1874 64.8241 28.4152 64.5278C28.643 64.213 28.8233 63.8519 28.9562 63.4444C29.1081 63.037 29.184 62.6019 29.184 62.1389C29.184 61.5278 29.0511 61.037 28.7854 60.6667C28.5196 60.2963 28.1969 60.1111 27.8172 60.1111H24.0869L22.9195 65.5H26.7921Z" fill="#EEEEEE"/>
<path d="M42.6659 76C41.432 76 40.3879 75.8333 39.5336 75.5C38.6794 75.1481 37.977 74.6759 37.4265 74.0833C36.8949 73.4722 36.5058 72.7593 36.259 71.9444C36.0122 71.1111 35.8888 70.2222 35.8888 69.2778C35.8888 68.2778 36.0027 67.25 36.2305 66.1944L38.4516 56.1111H43.1215L40.9004 66.1944C40.7296 67.0093 40.6441 67.7593 40.6441 68.4444C40.6441 68.9444 40.6916 69.4074 40.7865 69.8333C40.9004 70.2593 41.0713 70.6296 41.2991 70.9444C41.5269 71.2593 41.8211 71.5093 42.1818 71.6944C42.5615 71.8611 43.0171 71.9444 43.5486 71.9444C44.27 71.9444 44.9154 71.787 45.4849 71.4722C46.0544 71.1389 46.548 70.7037 46.9656 70.1667C47.3833 69.6296 47.7345 69.0185 48.0192 68.3333C48.304 67.6296 48.5318 66.9167 48.7026 66.1944L50.8952 56.1111H55.5651L53.3726 66.1944C53.0688 67.5648 52.6132 68.8426 52.0057 70.0278C51.4173 71.213 50.6769 72.25 49.7847 73.1389C48.8925 74.0278 47.8484 74.7315 46.6524 75.25C45.4754 75.75 44.1466 76 42.6659 76Z" fill="#EEEEEE"/>
<path d="M59.1472 56.1111H62.792L68.8573 67.6944L71.3631 56.1111H76.033L71.7332 75.8333H68.0315L61.9663 64.5556L59.5174 75.8333H54.8475L59.1472 56.1111Z" fill="#EEEEEE"/>
<path d="M79.8918 56.1111H84.5618L80.262 75.8333H75.5921L79.8918 56.1111Z" fill="#EEEEEE"/>
<path d="M92.4723 76C91.2763 76 90.2133 75.7685 89.2831 75.3056C88.3529 74.8241 87.5651 74.1944 86.9196 73.4167C86.2742 72.6204 85.7806 71.7222 85.4389 70.7222C85.1162 69.7037 84.9548 68.6574 84.9548 67.5833C84.9548 66.6759 85.0877 65.7593 85.3535 64.8333C85.6383 63.9074 86.0274 63.0185 86.521 62.1667C87.0335 61.2963 87.6505 60.4907 88.3719 59.75C89.0932 59.0093 89.9 58.3611 90.7923 57.8056C91.6845 57.25 92.6526 56.8148 93.6967 56.5C94.7408 56.1667 95.8419 56 96.9998 56C98.8223 56 100.312 56.3981 101.47 57.1944C102.628 57.9907 103.397 59.0278 103.777 60.3056L99.648 62.75C99.5531 62.2315 99.3823 61.8056 99.1355 61.4722C98.9077 61.1204 98.6229 60.8426 98.2812 60.6389C97.9395 60.4167 97.5694 60.2685 97.1707 60.1944C96.772 60.1019 96.3829 60.0556 96.0032 60.0556C95.0161 60.0556 94.1333 60.287 93.355 60.75C92.5767 61.1944 91.9123 61.7778 91.3618 62.5C90.8302 63.2037 90.4221 63.9815 90.1373 64.8333C89.8526 65.6852 89.7102 66.5093 89.7102 67.3056C89.7102 67.9352 89.7861 68.5278 89.938 69.0833C90.1089 69.6389 90.3462 70.1296 90.6499 70.5556C90.9726 70.9815 91.3713 71.3241 91.8458 71.5833C92.3204 71.8241 92.8615 71.9444 93.4689 71.9444C93.8676 71.9444 94.2757 71.8981 94.6934 71.8056C95.13 71.6944 95.5571 71.537 95.9747 71.3333C96.4114 71.1111 96.8195 70.8333 97.1992 70.5C97.5978 70.1481 97.9395 69.7222 98.2243 69.2222L101.584 71.4167C101.129 72.1389 100.55 72.787 99.8474 73.3611C99.145 73.9352 98.3761 74.4167 97.5409 74.8056C96.7246 75.1944 95.8703 75.4907 94.9781 75.6944C94.1049 75.8981 93.2696 76 92.4723 76Z" fill="#EEEEEE"/>
<path d="M118.249 56.1111H122.492L125.112 75.8333H120.328L119.901 71.4167H114.149L111.842 75.8333H107.03L118.249 56.1111ZM119.815 68.2778L119.246 61.3056L115.544 68.2778H119.815Z" fill="#EEEEEE"/>
<path d="M127.009 75.8333L131.308 56.1111H139.993C140.791 56.1111 141.493 56.2685 142.101 56.5833C142.727 56.8981 143.249 57.3148 143.667 57.8333C144.103 58.3519 144.435 58.9444 144.663 59.6111C144.891 60.2778 145.005 60.963 145.005 61.6667C145.005 62.3519 144.891 63.0278 144.663 63.6944C144.454 64.3611 144.151 65 143.752 65.6111C143.372 66.2037 142.907 66.75 142.357 67.25C141.825 67.75 141.237 68.1667 140.591 68.5L143.183 75.8333H137.915L135.694 69.4722H133.045L131.679 75.8333H127.009ZM137.801 65.5C138.086 65.5 138.37 65.4167 138.655 65.25C138.94 65.0648 139.196 64.8241 139.424 64.5278C139.652 64.213 139.832 63.8519 139.965 63.4444C140.117 63.037 140.193 62.6019 140.193 62.1389C140.193 61.5278 140.06 61.037 139.794 60.6667C139.528 60.2963 139.206 60.1111 138.826 60.1111H135.096L133.928 65.5H137.801Z" fill="#EEEEEE"/>
<path d="M149.745 56.1111H163.043L162.16 60.1111H153.532L152.706 63.9444H160.11L159.313 67.6389H151.909L150.969 71.8333H159.854L158.999 75.8333H145.445L149.745 56.1111Z" fill="#EEEEEE"/>
<path d="M166.152 56.1111H169.796L175.862 67.6944L178.367 56.1111H183.037L178.738 75.8333H175.036L168.971 64.5556L166.522 75.8333H161.852L166.152 56.1111Z" fill="#EEEEEE"/>
<path d="M192.079 56.1111H196.321L198.941 75.8333H194.157L193.73 71.4167H187.978L185.672 75.8333H180.859L192.079 56.1111ZM193.645 68.2778L193.075 61.3056L189.374 68.2778H193.645Z" fill="#EEEEEE"/>
</svg>